<?xml version="1.0" encoding="utf-8"?>
<!-- Generator: Adobe Illustrator 16.0.0, SVG Export Plug-In . SVG Version: 6.00 Build 0)  -->
<!DOCTYPE svg PUBLIC "-//W3C//DTD SVG 1.1//EN" "http://www.w3.org/Graphics/SVG/1.1/DTD/svg11.dtd">
<svg version="1.1" id="Layer_1" xmlns="http://www.w3.org/2000/svg" xmlns:xlink="http://www.w3.org/1999/xlink" x="0px" y="0px"
	 width="1280px" height="800px" viewBox="0 0 1280 800" enable-background="new 0 0 1280 800" xml:space="preserve">
<polygon fill="#FFFFFF" points="33.805,-83.128 -74.723,78 127.506,78 "/>
<polygon fill="#FFFFFF" points="129.869,78.872 21.341,240 223.57,240 "/>
<polygon fill="#FFFFFF" points="21.054,239.872 -87.475,401 114.754,401 "/>
<polygon fill="#FFFFFF" points="440.164,-83.128 331.635,78 533.864,78 "/>
<polygon fill="#FFFFFF" points="236.134,-83.128 127.606,78 329.834,78 "/>
<polygon fill="#FFFFFF" points="331.348,78.872 222.82,240 425.048,240 "/>
<polygon fill="#FFFFFF" points="427.412,239.872 318.883,401 521.112,401 "/>
<polygon fill="#FFFFFF" points="223.382,239.872 114.854,401 317.083,401 "/>
<polygon fill="#FFFFFF" points="533.677,78.872 425.149,240 627.377,240 "/>
<polygon fill="#FFFFFF" points="629.741,239.872 521.212,401 723.441,401 "/>
<polygon fill="#FFFFFF" points="646.744,-83.128 538.215,78 740.443,78 "/>
<polygon fill="#FFFFFF" points="-41.855,-31.128 -150.384,130 51.845,130 "/>
<polygon fill="#FFFFFF" points="54.208,129.872 -54.32,291 147.909,291 "/>
<polygon fill="#FFFFFF" points="-54.607,291.872 -163.136,453 39.093,453 "/>
<polygon fill="#FFFFFF" points="364.503,-31.128 255.975,130 458.204,130 "/>
<polygon fill="#FFFFFF" points="160.474,-31.128 51.945,130 254.174,130 "/>
<polygon fill="#FFFFFF" points="255.687,129.872 147.159,291 349.387,291 "/>
<polygon fill="#FFFFFF" points="351.751,291.872 243.223,453 445.452,453 "/>
<polygon fill="#FFFFFF" points="147.722,291.872 39.193,453 241.422,453 "/>
<polygon fill="#FFFFFF" points="458.016,129.872 349.488,291 551.716,291 "/>
<polygon fill="#FFFFFF" points="554.081,291.872 445.552,453 647.781,453 "/>
<polygon fill="#FFFFFF" points="571.083,-31.128 462.554,130 664.783,130 "/>
<polygon fill="#FFFFFF" points="0.805,387.871 -107.723,549 94.506,549 "/>
<polygon fill="#FFFFFF" points="96.87,549.871 -11.66,711 190.57,711 "/>
<polygon fill="#FFFFFF" points="-11.947,710.871 -120.475,872 81.754,872 "/>
<polygon fill="#FFFFFF" points="407.164,387.871 298.635,549 500.864,549 "/>
<polygon fill="#FFFFFF" points="203.134,387.871 94.606,549 296.834,549 "/>
<polygon fill="#FFFFFF" points="298.348,549.871 189.82,711 392.048,711 "/>
<polygon fill="#FFFFFF" points="394.412,710.871 285.883,872 488.112,872 "/>
<polygon fill="#FFFFFF" points="190.382,710.871 81.854,872 284.083,872 "/>
<polygon fill="#FFFFFF" points="500.677,549.871 392.149,711 594.377,711 "/>
<polygon fill="#FFFFFF" points="596.741,710.871 488.212,872 690.441,872 "/>
<polygon fill="#FFFFFF" points="613.744,387.871 505.215,549 707.443,549 "/>
<polygon fill="#FFFFFF" points="-74.855,439.871 -183.384,601 18.844,601 "/>
<polygon fill="#FFFFFF" points="21.208,600.871 -87.32,762 114.909,762 "/>
<polygon fill="#FFFFFF" points="-87.607,762.871 -196.136,924 6.092,924 "/>
<polygon fill="#FFFFFF" points="331.503,439.871 222.975,601 425.204,601 "/>
<polygon fill="#FFFFFF" points="127.473,439.871 18.946,601 221.174,601 "/>
<polygon fill="#FFFFFF" points="222.687,600.871 114.159,762 316.387,762 "/>
<polygon fill="#FFFFFF" points="318.751,762.871 210.223,924 412.452,924 "/>
<polygon fill="#FFFFFF" points="114.721,762.871 6.194,924 208.422,924 "/>
<polygon fill="#FFFFFF" points="425.016,600.871 316.488,762 518.716,762 "/>
<polygon fill="#FFFFFF" points="521.081,762.871 412.552,924 614.781,924 "/>
<polygon fill="#FFFFFF" points="538.083,439.871 429.554,601 631.783,601 "/>
<polygon fill="#FFFFFF" points="844.805,-83.128 736.277,78 938.506,78 "/>
<polygon fill="#FFFFFF" points="940.869,78.872 832.34,240 1034.57,240 "/>
<polygon fill="#FFFFFF" points="832.053,239.872 723.525,401 925.754,401 "/>
<polygon fill="#FFFFFF" points="1251.164,-83.128 1142.635,78 1344.863,78 "/>
<polygon fill="#FFFFFF" points="1047.135,-83.128 938.605,78 1140.834,78 "/>
<polygon fill="#FFFFFF" points="1142.348,78.872 1033.82,240 1236.049,240 "/>
<polygon fill="#FFFFFF" points="1238.412,239.872 1129.883,401 1332.111,401 "/>
<polygon fill="#FFFFFF" points="1034.383,239.872 925.854,401 1128.082,401 "/>
<polygon fill="#FFFFFF" points="1344.678,78.872 1236.148,240 1438.377,240 "/>
<polygon fill="#FFFFFF" points="1440.74,239.872 1332.213,401 1534.441,401 "/>
<polygon fill="#FFFFFF" points="1457.744,-83.128 1349.215,78 1551.443,78 "/>
<polygon fill="#FFFFFF" points="769.145,-31.128 660.615,130 862.844,130 "/>
<polygon fill="#FFFFFF" points="865.209,129.872 756.68,291 958.908,291 "/>
<polygon fill="#FFFFFF" points="756.393,291.872 647.863,453 850.092,453 "/>
<polygon fill="#FFFFFF" points="1175.504,-31.128 1066.975,130 1269.203,130 "/>
<polygon fill="#FFFFFF" points="971.473,-31.128 862.945,130 1065.174,130 "/>
<polygon fill="#FFFFFF" points="1066.688,129.872 958.158,291 1160.387,291 "/>
<polygon fill="#FFFFFF" points="1162.752,291.872 1054.223,453 1256.451,453 "/>
<polygon fill="#FFFFFF" points="958.721,291.872 850.193,453 1052.422,453 "/>
<polygon fill="#FFFFFF" points="1269.016,129.872 1160.488,291 1362.717,291 "/>
<polygon fill="#FFFFFF" points="1365.08,291.872 1256.553,453 1458.781,453 "/>
<polygon fill="#FFFFFF" points="1382.082,-31.128 1273.555,130 1475.783,130 "/>
<polygon fill="#FFFFFF" points="811.805,387.871 703.277,549 905.506,549 "/>
<polygon fill="#FFFFFF" points="907.869,549.871 799.34,711 1001.57,711 "/>
<polygon fill="#FFFFFF" points="799.053,710.871 690.525,872 892.754,872 "/>
<polygon fill="#FFFFFF" points="1218.164,387.871 1109.635,549 1311.863,549 "/>
<polygon fill="#FFFFFF" points="1014.135,387.871 905.605,549 1107.834,549 "/>
<polygon fill="#FFFFFF" points="1109.348,549.871 1000.82,711 1203.049,711 "/>
<polygon fill="#FFFFFF" points="1205.412,710.871 1096.883,872 1299.111,872 "/>
<polygon fill="#FFFFFF" points="1001.383,710.871 892.854,872 1095.082,872 "/>
<polygon fill="#FFFFFF" points="1311.678,549.871 1203.148,711 1405.377,711 "/>
<polygon fill="#FFFFFF" points="1407.74,710.871 1299.213,872 1501.441,872 "/>
<polygon fill="#FFFFFF" points="1424.744,387.871 1316.215,549 1518.443,549 "/>
<polygon fill="#FFFFFF" points="736.145,439.871 627.616,601 829.844,601 "/>
<polygon fill="#FFFFFF" points="832.209,600.871 723.68,762 925.908,762 "/>
<polygon fill="#FFFFFF" points="723.393,762.871 614.864,924 817.092,924 "/>
<polygon fill="#FFFFFF" points="1142.504,439.871 1033.975,601 1236.203,601 "/>
<polygon fill="#FFFFFF" points="938.473,439.871 829.945,601 1032.174,601 "/>
<polygon fill="#FFFFFF" points="1033.688,600.871 925.158,762 1127.387,762 "/>
<polygon fill="#FFFFFF" points="1129.752,762.871 1021.223,924 1223.451,924 "/>
<polygon fill="#FFFFFF" points="925.721,762.871 817.193,924 1019.422,924 "/>
<polygon fill="#FFFFFF" points="1236.016,600.871 1127.488,762 1329.717,762 "/>
<polygon fill="#FFFFFF" points="1332.08,762.871 1223.553,924 1425.781,924 "/>
<polygon fill="#FFFFFF" points="1349.082,439.871 1240.555,601 1442.783,601 "/>
<polygon fill="#FFFFFF" points="703.135,549.871 594.606,711 796.834,711 "/>
<polygon fill="#FFFFFF" points="736.135,78.871 627.606,240 829.834,240 "/>
</svg>
